# xmcd CD database file
#
# Track frame offsets:
#	150
#	12133
#	22740
#	30564
#	40310
#	50884
#	61644
#	72742
#	82603
#	93741
#	104117
#	112779
#	123932
#	135091
#	145007
#	157876
#	170799
#	183414
#	195370
#	204403
#	215039
#	227908
#	239023
#	251568
#	262665
#	275262
#
# Disc length: 3840 seconds
#
# Revision: 0
# Processed by: cddbd v1.5.2PL0 Copyright (c) Steve Scherf et al.
# Submitted via: CDex 1.51
#
DISCID=600efe1a
DTITLE=Austin Wood and His Missouri Swingsters - Austin Wood and His Missouri Swingsters
DYEAR=1900
DGENRE=Country
TTITLE0=Truck Driver's Night Run Blues
TTITLE1=It's My Heart That Knows
TTITLE2=Farewell Blues (Instr.)
TTITLE3=When My Baby Comes Home
TTITLE4=I Will Still Remember While You Try To Forget
TTITLE5=Don't Bring Your Broken Heart To Me
TTITLE6=Baby, How Come
TTITLE7=Give Me A Little More Time
TTITLE8=Tellin' My Troubles To My Old Guitar
TTITLE9=Everybody's Sweetheart To You
TTITLE10=Grey Eagle (Instr.)
TTITLE11=A Purpose And A Plan
TTITLE12=Faded Love
TTITLE13=What They're Saying In The Old Home Town
TTITLE14=Cold Cold War With You
TTITLE15=I Just Kneel Down And Pray
TTITLE16=Tear Drops On My Old Guitar
TTITLE17=I Live For You
TTITLE18=Maiden's Prayer (Instr.)
TTITLE19=There's A Big Rock In The Road
TTITLE20=Night Train To Memphis
TTITLE21=So Let's Rock
TTITLE22=Headin' Home
TTITLE23=You Can Play Your Little Game Around The Corner
TTITLE24=Somebody Else's Troubles
TTITLE25=Sweet Temptation
EXTD=
EXTT0=
EXTT1=
EXTT2=
EXTT3=
EXTT4=
EXTT5=
EXTT6=
EXTT7=
EXTT8=
EXTT9=
EXTT10=
EXTT11=
EXTT12=
EXTT13=
EXTT14=
EXTT15=
EXTT16=
EXTT17=
EXTT18=
EXTT19=
EXTT20=
EXTT21=
EXTT22=
EXTT23=
EXTT24=
EXTT25=
PLAYORDER=
